<?xml version="1.0" encoding="utf-8"?>
<!-- Generator: Adobe Illustrator 25.1.0, SVG Export Plug-In . SVG Version: 6.00 Build 0)  -->
<svg version="1.1" id="Layer_1" xmlns="http://www.w3.org/2000/svg" xmlns:xlink="http://www.w3.org/1999/xlink" x="0px" y="0px"
	 viewBox="0 0 1457 312" style="enable-background:new 0 0 1457 312;" xml:space="preserve">
<style type="text/css">
	.st0{fill:#FFFFFF;}
	.st1{fill:#E785FF;}
	.st2{fill:#5E4AFF;}
	.st3{fill:#D4ACFF;}
</style>
<g>
	<path class="st0" d="M429.84,183.38v107.02h-39.77V26.86h45.06c22.07,0,38.74,1.54,50.01,4.61c11.38,3.07,21.39,8.88,30.04,17.41
		c15.13,14.79,22.7,33.45,22.7,55.98c0,24.12-8.08,43.24-24.24,57.35c-16.16,14.11-37.95,21.16-65.37,21.16H429.84z M429.84,146.51
		h14.85c36.53,0,54.79-14.05,54.79-42.16c0-27.19-18.83-40.79-56.5-40.79h-13.14V146.51z"/>
	<path class="st0" d="M552.78,25.36c12.78,0,25.56,0,38.34,0c0,36.26,0,72.53,0,108.79c5.03-4.1,14.38-10.57,27.64-13.38
		c7.46-1.58,13.31-1.4,18-1.23c8.38,0.31,20.9,0.92,33.46,8.67c4.23,2.61,8.1,5.81,11.6,9.59c9.56,10.58,14.34,27.48,14.34,50.69
		v101.9h-38.4v-98.31c0-13.31-2.36-22.96-7.08-28.93c-4.72-5.97-12.32-8.96-22.79-8.96c-13.43,0-22.87,4.16-28.33,12.46
		c-5.35,8.42-8.02,22.87-8.02,43.35v80.39h-38.4C553.02,202.05,552.9,113.7,552.78,25.36z"/>
	<path class="st0" d="M718.97,204.94c0-23.35,8.36-43.22,25.07-59.6c16.71-16.38,37.08-24.57,61.1-24.57
		c24.13,0,44.6,8.25,61.43,24.74c16.6,16.49,24.9,36.75,24.9,60.76c0,24.24-8.36,44.55-25.07,60.93
		c-16.82,16.27-37.47,24.41-61.93,24.41c-24.24,0-44.55-8.3-60.93-24.9C727.16,250.32,718.97,229.74,718.97,204.94z M757.16,205.61
		c0,16.16,4.32,28.94,12.95,38.35c8.85,9.52,20.53,14.28,35.03,14.28c14.61,0,26.29-4.7,35.03-14.11
		c8.74-9.41,13.12-21.97,13.12-37.69c0-15.72-4.37-28.28-13.12-37.69c-8.86-9.52-20.53-14.28-35.03-14.28
		c-14.28,0-25.85,4.76-34.7,14.28C761.58,178.27,757.16,190.56,757.16,205.61z"/>
	<path class="st0" d="M1063.28,215.36H947.52c1,13.27,5.31,23.83,12.94,31.68c7.63,7.74,17.41,11.61,29.35,11.61
		c9.29,0,16.97-2.21,23.05-6.63c5.97-4.42,12.77-12.6,20.4-24.55l31.51,17.58c-4.87,8.29-10.01,15.4-15.42,21.31
		c-5.42,5.92-11.22,10.78-17.41,14.59c-6.19,3.81-12.88,6.61-20.07,8.38c-7.19,1.77-14.98,2.65-23.38,2.65
		c-24.1,0-43.45-7.74-58.05-23.22c-14.59-15.59-21.89-36.26-21.89-62.03c0-25.54,7.07-46.21,21.23-62.03
		c14.26-15.59,33.17-23.38,56.72-23.38c23.77,0,42.57,7.57,56.39,22.72c13.71,15.04,20.56,35.88,20.56,62.52L1063.28,215.36z
		 M1024.97,184.84c-5.2-19.9-17.75-29.85-37.65-29.85c-4.53,0-8.79,0.69-12.77,2.07c-3.98,1.38-7.6,3.37-10.86,5.97
		c-3.26,2.6-6.05,5.72-8.38,9.37s-4.09,7.79-5.31,12.44H1024.97z"/>
	<path class="st0" d="M1127.94,25.36c0,37.45,0,74.9,0,112.36c3.61-3.13,8.95-7.17,16.05-10.7c14.59-7.26,28-8.05,34.78-8.03
		c15.82,0.05,27.35,5.07,30.04,6.29c13.1,5.93,20.9,14.31,24.49,18.31c14.52,16.18,21.78,36.35,21.78,60.51
		c0,24.93-7.31,45.55-21.94,61.84c-14.52,16.18-32.86,24.27-55.02,24.27c-1.82,0-8.98-0.16-18.13-2.42
		c-7.21-1.78-19.22-5.75-32.04-15.42c0,5.94,0,11.89,0,17.83c-12.48,0-24.97,0-37.45,0c0-88.28,0-176.56,0-264.84
		C1102.98,25.36,1115.46,25.36,1127.94,25.36z M1220.41,205.75c0-15.51-4.21-28.15-12.63-37.9c-8.53-9.97-19.23-14.96-32.08-14.96
		c-13.74,0-24.93,4.82-33.58,14.46c-8.53,9.53-12.8,21.94-12.8,37.23c0,15.74,4.21,28.32,12.63,37.73
		c8.42,9.64,19.5,14.46,33.24,14.46c12.97,0,23.71-4.82,32.25-14.46C1216.09,232.57,1220.41,220.38,1220.41,205.75z M1224.25,305.36
		 M1258.13,290.2"/>
	<path class="st0" d="M1427.85,215.43H1312c1,13.28,5.31,23.85,12.95,31.7c7.63,7.75,17.43,11.62,29.38,11.62
		c9.29,0,16.98-2.21,23.07-6.64c5.98-4.42,12.78-12.61,20.41-24.56l31.53,17.59c-4.87,8.3-10.02,15.41-15.44,21.33
		c-5.42,5.92-11.23,10.79-17.43,14.61c-6.2,3.82-12.89,6.61-20.08,8.38c-7.19,1.77-14.99,2.66-23.4,2.66
		c-24.12,0-43.48-7.74-58.09-23.24c-14.61-15.6-21.91-36.29-21.91-62.07c0-25.56,7.08-46.25,21.24-62.07
		c14.27-15.6,33.19-23.4,56.76-23.4c23.79,0,42.6,7.58,56.43,22.74c13.72,15.05,20.58,35.91,20.58,62.57L1427.85,215.43z
		 M1389.51,184.89c-5.2-19.92-17.76-29.88-37.68-29.88c-4.54,0-8.8,0.69-12.78,2.07c-3.98,1.38-7.61,3.38-10.87,5.98
		c-3.27,2.6-6.06,5.73-8.38,9.38s-4.1,7.8-5.31,12.45H1389.51z"/>
</g>
<g>
	<path class="st0" d="M128.39,305.88H79.36c0-33.63-27.44-60.9-61.28-60.9v-48.72C79.01,196.25,128.39,245.34,128.39,305.88z"/>
	<path class="st0" d="M211.12,305.88H162.1c0-79.04-64.48-143.13-144.02-143.13v-48.72c14.73,0,29.07,1.64,42.86,4.75
		C89,183.11,141.15,234.64,206.08,262.14C209.38,276.19,211.12,290.83,211.12,305.88z"/>
	<path class="st0" d="M39.25,32.61c1.41,17.13,4.4,33.8,8.84,49.88c-9.82-1.29-19.83-1.96-30-1.96V31.81
		C25.2,31.81,32.26,32.07,39.25,32.61z"/>
	<path class="st0" d="M284.07,233.27c-19.99-2.62-39.15-7.83-57.14-15.29h-0.01c-23.12-54.19-66.98-97.55-121.68-120.2
		C97.61,79.94,92.26,60.93,89.5,41.09c12.56,3.34,24.78,7.54,36.57,12.53c16.72,71.21,73.33,127.18,145.14,143.36
		C276.33,208.67,280.63,220.79,284.07,233.27z"/>
	<path class="st0" d="M293.86,305.88h-49.03c0-10.59-0.74-21.01-2.17-31.21c16.22,4.31,33.01,7.19,50.25,8.48
		C293.54,290.64,293.86,298.23,293.86,305.88z"/>
	<path class="st0" d="M128.39,305.88H79.36c0-33.63-27.44-60.9-61.28-60.9v-48.72C79.01,196.25,128.39,245.34,128.39,305.88z"/>
	<path class="st0" d="M211.12,305.88H162.1c0-79.04-64.48-143.13-144.02-143.13v-48.72c14.73,0,29.07,1.64,42.86,4.75
		C89,183.11,141.15,234.64,206.08,262.14C209.38,276.19,211.12,290.83,211.12,305.88z"/>
	<path class="st0" d="M128.39,305.88H79.36c0-33.63-27.44-60.9-61.28-60.9v-48.72C79.01,196.25,128.39,245.34,128.39,305.88z"/>
	<path class="st0" d="M211.12,305.88H162.1c0-79.04-64.48-143.13-144.02-143.13v-48.72c14.73,0,29.07,1.64,42.86,4.75
		C89,183.11,141.15,234.64,206.08,262.14C209.38,276.19,211.12,290.83,211.12,305.88z"/>
	<path class="st0" d="M128.39,305.88H79.36c0-33.63-27.44-60.9-61.28-60.9v-48.72C79.01,196.25,128.39,245.34,128.39,305.88z"/>
	<path class="st0" d="M128.39,305.88H79.36c0-33.63-27.44-60.9-61.28-60.9v-48.72C79.01,196.25,128.39,245.34,128.39,305.88z"/>
</g>
<path class="st1" d="M203.77,9.88h49.03c0,33.63,27.44,60.9,61.28,60.9v48.72C253.15,119.51,203.77,70.42,203.77,9.88z"/>
<path class="st1" d="M314.08,153.01v48.72c-14.73,0-29.07-1.64-42.86-4.75c-28.06-64.33-80.21-115.87-145.14-143.36
	c-3.3-14.06-5.04-28.7-5.04-43.74h49.03C170.06,88.92,234.54,153.01,314.08,153.01z"/>
<path class="st1" d="M203.77,9.88h49.03c0,33.63,27.44,60.9,61.28,60.9v48.72C253.15,119.51,203.77,70.42,203.77,9.88z"/>
<path class="st1" d="M314.08,153.01v48.72c-14.73,0-29.07-1.64-42.86-4.75c-28.06-64.33-80.21-115.87-145.14-143.36
	c-3.3-14.06-5.04-28.7-5.04-43.74h49.03C170.06,88.92,234.54,153.01,314.08,153.01z"/>
<path class="st1" d="M203.77,9.88h49.03c0,33.63,27.44,60.9,61.28,60.9v48.72C253.15,119.51,203.77,70.42,203.77,9.88z"/>
<path class="st1" d="M203.77,9.88h49.03c0,33.63,27.44,60.9,61.28,60.9v48.72C253.15,119.51,203.77,70.42,203.77,9.88z"/>
<g>
	<path class="st2" d="M89.5,41.09c-16.22-4.31-33.01-7.19-50.25-8.48c-0.63-7.49-0.94-15.08-0.94-22.73h49.03
		C87.33,20.46,88.06,30.89,89.5,41.09z"/>
	<path class="st2" d="M226.93,217.98c7.61,17.83,12.97,36.85,15.73,56.69c-12.56-3.34-24.78-7.54-36.57-12.53
		c-16.72-71.21-73.33-127.18-145.14-143.36c-5.11-11.69-9.41-23.81-12.86-36.29c19.99,2.62,39.16,7.83,57.15,15.29
		c23.12,54.19,66.98,97.55,121.68,120.2H226.93z"/>
	<path class="st2" d="M314.08,235.23v48.72c-7.12,0-14.18-0.27-21.17-0.8c-1.41-17.13-4.4-33.8-8.84-49.88
		C293.89,234.56,303.91,235.23,314.08,235.23z"/>
	<path class="st2" d="M314.08,153.01v48.72c-14.73,0-29.07-1.64-42.86-4.75c-28.06-64.33-80.21-115.87-145.14-143.36
		c-3.3-14.06-5.04-28.7-5.04-43.74h49.03C170.06,88.92,234.54,153.01,314.08,153.01z"/>
	<path class="st2" d="M203.77,9.88h49.03c0,33.63,27.44,60.9,61.28,60.9v48.72C253.15,119.51,203.77,70.42,203.77,9.88z"/>
</g>
<g>
	<path class="st3" d="M105.24,97.78c-17.99-7.45-37.16-12.67-57.15-15.29c-4.44-16.08-7.43-32.75-8.84-49.88
		c17.25,1.29,34.04,4.17,50.25,8.48C92.26,60.93,97.61,79.94,105.24,97.78z"/>
	<path class="st3" d="M292.91,283.15c-17.25-1.29-34.04-4.17-50.25-8.48c-2.76-19.84-8.11-38.86-15.73-56.69
		c17.99,7.45,37.15,12.67,57.14,15.29C288.51,249.35,291.5,266.02,292.91,283.15z"/>
	<path class="st3" d="M271.22,196.98C199.4,180.8,142.79,124.83,126.07,53.62C191.01,81.11,243.16,132.65,271.22,196.98z"/>
	<path class="st3" d="M206.08,262.14C141.15,234.64,89,183.11,60.94,118.78C132.75,134.95,189.37,190.93,206.08,262.14z"/>
</g>
</svg>
